HIERARCHY
ROOT Hips
{
	OFFSET 38.582500 -14.901615 92.646500
	CHANNELS 6 Xposition Yposition Zposition Xrotation Yrotation Zrotation
	JOINT spine
	{
		OFFSET 0.000000 -0.429886 7.475601
		CHANNELS 3 Xrotation Yrotation Zrotation
		JOINT spine1
		{
			OFFSET 0.000000 -0.000002 9.923012
			CHANNELS 3 Xrotation Yrotation Zrotation
			JOINT spine2
			{
				OFFSET 0.000000 -0.000001 9.508041
				CHANNELS 3 Xrotation Yrotation Zrotation
				JOINT Neck
				{
					OFFSET 0.000000 -1.163844 24.411095
					CHANNELS 3 Xrotation Yrotation Zrotation
					JOINT Head
					{
						OFFSET 0.000000 -0.000002 7.375229
						CHANNELS 3 Xrotation Yrotation Zrotation
						End Site
						{
							OFFSET 0.000000 5.887407 17.852203
						}
					}
				}
				JOINT RightShoulder
				{
					OFFSET -4.003559 0.557467 10.267906
					CHANNELS 3 Xrotation Yrotation Zrotation
					JOINT RightArm
					{
						OFFSET 0.000000 -0.000002 13.467300
						CHANNELS 3 Xrotation Yrotation Zrotation
						JOINT RightArmRoll
						{
							OFFSET 0.000000 -0.000002 6.798569
							CHANNELS 3 Xrotation Yrotation Zrotation
							JOINT RightForeArm
							{
								OFFSET 0.000000 -0.000003 19.801804
								CHANNELS 3 Xrotation Yrotation Zrotation
								JOINT RightForeArmRoll
								{
									OFFSET 0.000000 -0.000001 7.629044
									CHANNELS 3 Xrotation Yrotation Zrotation
									JOINT RightHand
									{
										OFFSET 0.000000 -0.000003 15.309799
										CHANNELS 3 Xrotation Yrotation Zrotation
										End Site
										{
											OFFSET 0.000000 0.000000 0.100006
										}
									}
								}
							}
						}
					}
				}
				JOINT LeftShoulder
				{
					OFFSET 4.003559 0.557467 10.267906
					CHANNELS 3 Xrotation Yrotation Zrotation
					JOINT LeftArm
					{
						OFFSET 0.000000 -0.000002 13.467300
						CHANNELS 3 Xrotation Yrotation Zrotation
						JOINT LeftArmRoll
						{
							OFFSET 0.000000 -0.000002 6.798569
							CHANNELS 3 Xrotation Yrotation Zrotation
							JOINT LeftForeArm
							{
								OFFSET 0.000000 -0.000003 19.801804
								CHANNELS 3 Xrotation Yrotation Zrotation
								JOINT LeftForeArmRoll
								{
									OFFSET 0.000000 -0.000001 7.629044
									CHANNELS 3 Xrotation Yrotation Zrotation
									JOINT LeftHand
									{
										OFFSET 0.000000 -0.000003 15.309799
										CHANNELS 3 Xrotation Yrotation Zrotation
										End Site
										{
											OFFSET 0.000000 0.000000 0.100006
										}
									}
								}
							}
						}
					}
				}
			}
		}
	}
	JOINT RightUpLeg
	{
		OFFSET -6.626091 1.019270 -1.215050
		CHANNELS 3 Xrotation Yrotation Zrotation
		JOINT RightUpLegRoll
		{
			OFFSET 0.000000 -0.000003 17.951698
			CHANNELS 3 Xrotation Yrotation Zrotation
			JOINT RightLeg
			{
				OFFSET 0.000000 0.000004 -22.230400
				CHANNELS 3 Xrotation Yrotation Zrotation
				JOINT RightLegRoll
				{
					OFFSET 0.000000 -0.000004 22.303200
					CHANNELS 3 Xrotation Yrotation Zrotation
					JOINT RightFoot
					{
						OFFSET 0.000000 -0.000003 18.563599
						CHANNELS 3 Xrotation Yrotation Zrotation
						JOINT RightToeBase
						{
							OFFSET 0.000000 -0.000003 15.518295
							CHANNELS 3 Xrotation Yrotation Zrotation
							End Site
							{
								OFFSET 0.006578 0.866262 7.515381
							}
						}
					}
				}
			}
		}
	}
	JOINT LeftUpLeg
	{
		OFFSET 6.626091 1.019270 -1.215050
		CHANNELS 3 Xrotation Yrotation Zrotation
		JOINT LeftUpLegRoll
		{
			OFFSET 0.000000 -0.000003 17.951797
			CHANNELS 3 Xrotation Yrotation Zrotation
			JOINT LeftLeg
			{
				OFFSET 0.000000 -0.000003 22.230309
				CHANNELS 3 Xrotation Yrotation Zrotation
				JOINT LeftLegRoll
				{
					OFFSET 0.000000 -0.000004 22.509308
					CHANNELS 3 Xrotation Yrotation Zrotation
					JOINT LeftFoot
					{
						OFFSET 0.000000 -0.000003 18.357498
						CHANNELS 3 Xrotation Yrotation Zrotation
						JOINT LeftToeBase
						{
							OFFSET 0.000000 -0.000003 15.518295
							CHANNELS 3 Xrotation Yrotation Zrotation
							End Site
							{
								OFFSET -0.029476 0.866262 7.515381
							}
						}
					}
				}
			}
		}
	}
}
MOTION
Frames: 10
Frame Time: 0.041667
42.292397 -14.088115 92.826691 -0.226516 -3.752581 88.059676 -1.467077 0.584367 0.219718 1.067580 1.162068 0.450903 2.712743 1.167340 0.436952 -0.800895 12.857088 -7.184971 2.257794 -16.015291 -7.464053 -14.541959 -37.251254 -16.459545 -95.472890 -181.339214 -68.448584 -0.000065 0.000006 0.000005 50.269058 -2.016139 -1.753434 -0.000048 0.000028 -2.999991 -5.000174 -7.998942 0.000151 -16.328114 73.179466 19.513944 100.664947 73.854098 -110.469308 0.000003 -0.000003 0.000005 20.670762 11.280762 -0.937029 0.000006 -0.000004 3.000011 -5.000168 7.998742 -0.000158 6.755513 -186.188088 -4.058435 -179.999991 0.000005 -1.152999 173.752240 -1.861880 -0.421810 0.000017 0.000003 0.105774 70.114535 7.134105 1.405748 27.741006 -7.411962 -1.294529 -11.480147 176.005273 0.178199 -0.000005 -0.000005 -0.942041 -17.429046 4.355887 1.221355 -0.000002 -0.000002 -0.231754 68.990942 -6.799685 -2.366835 25.456962 7.355615 -0.000041 
42.255699 -14.086916 92.826782 -0.208965 -3.701821 88.018312 -1.468118 0.586170 0.220449 1.065691 1.165109 0.452818 2.710866 1.170399 0.438828 -0.849684 12.860433 -7.171074 2.243595 -16.012444 -7.458532 -14.540334 -37.243031 -16.457023 -95.403215 -181.225177 -68.512173 -0.000066 0.000006 0.000011 50.430832 -2.056340 -1.734525 -0.000048 0.000024 -2.999992 -5.000167 -7.998946 0.000151 -16.319576 73.210885 19.505178 100.523644 73.813574 -110.267257 0.000005 -0.000004 0.000006 20.719244 11.309412 -0.946826 0.000007 -0.000004 3.000010 -5.000174 7.998742 -0.000158 6.699263 -186.165958 -4.055673 -179.999991 0.000004 -1.152002 173.791117 -1.857048 -0.420006 0.000017 0.000003 0.106281 70.121837 7.135800 1.400579 27.706126 -7.410306 -1.275433 -11.528381 176.025559 0.197450 -0.000005 -0.000004 -0.940821 -17.392061 4.352860 1.219509 -0.000002 -0.000002 -0.231675 68.988531 -6.799756 -2.366696 25.456959 7.355616 -0.000041 
42.208004 -14.059416 92.815086 -0.189846 -3.651048 87.975808 -1.469376 0.587954 0.221402 1.063331 1.168129 0.455174 2.708508 1.173428 0.441144 -0.894446 12.865285 -7.156924 2.228226 -16.011005 -7.452565 -14.537520 -37.231972 -16.452913 -95.333649 -181.110362 -68.577176 -0.000066 0.000005 0.000007 50.587516 -2.095715 -1.715782 -0.000051 0.000028 -2.999988 -5.000171 -7.998942 0.000151 -16.309563 73.245344 19.494854 100.377505 73.774055 -110.063362 0.000004 -0.000004 0.000006 20.762788 11.337367 -0.956129 0.000011 -0.000004 3.000011 -5.000168 7.998743 -0.000158 6.641427 -186.142845 -4.051961 -179.999991 0.000005 -1.149994 173.827454 -1.852205 -0.418291 0.000017 0.000003 0.106861 70.130040 7.137336 1.395723 27.671449 -7.408683 -1.256422 -11.576512 176.045845 0.216522 -0.000004 -0.000004 -0.939602 -17.354778 4.350210 1.217703 -0.000002 -0.000002 -0.231605 68.985177 -6.799801 -2.366512 25.456964 7.355615 -0.000041 
42.171402 -14.058416 92.819504 -0.169625 -3.600544 87.932142 -1.470767 0.589693 0.222505 1.060732 1.171080 0.457806 2.705910 1.176407 0.443739 -0.936131 12.870739 -7.141954 2.212279 -16.010167 -7.445567 -14.533589 -37.219760 -16.447254 -95.264480 -180.995806 -68.644316 -0.000066 0.000006 0.000008 50.739010 -2.134349 -1.697254 -0.000050 0.000029 -2.999989 -5.000170 -7.998943 0.000149 -16.299328 73.281462 19.484308 100.231018 73.735403 -109.862015 0.000004 -0.000005 0.000006 20.801556 11.364327 -0.964867 0.000005 -0.000005 3.000010 -5.000171 7.998742 -0.000157 6.582399 -186.119732 -4.047600 -179.999991 0.000004 -1.148997 173.861318 -1.848344 -0.416769 0.000018 0.000002 0.107485 70.138741 7.138773 1.391118 27.637078 -7.407114 -1.237596 -11.624429 176.067086 0.234801 -0.000004 -0.000004 -0.938386 -17.317711 4.348086 1.215958 -0.000002 -0.000002 -0.231543 68.981195 -6.799880 -2.366369 25.456960 7.355615 -0.000040 
42.132000 -14.047117 92.811989 -0.148798 -3.550627 87.887083 -1.472149 0.591366 0.223683 1.058113 1.173930 0.460562 2.703293 1.179296 0.446457 -0.975685 12.875995 -7.125613 2.196391 -16.009029 -7.436940 -14.528641 -37.208190 -16.440139 -95.196151 -180.882602 -68.713827 -0.000066 0.000004 0.000006 50.885118 -2.172344 -1.678988 -0.000050 0.000026 -2.999989 -5.000168 -7.998942 0.000153 -16.290020 73.317716 19.474782 100.089551 73.697338 -109.668461 0.000003 -0.000004 0.000005 20.835859 11.390192 -0.973077 0.000006 -0.000004 3.000010 -5.000166 7.998742 -0.000157 6.522567 -186.095594 -4.042637 -179.999991 0.000005 -1.147002 173.892805 -1.843481 -0.415222 0.000017 0.000002 0.108125 70.147873 7.139909 1.387127 27.603209 -7.405587 -1.219049 -11.672072 176.086375 0.252488 -0.000006 -0.000004 -0.937176 -17.281465 4.346637 1.214305 -0.000002 -0.000002 -0.231485 68.976796 -6.799969 -2.366157 25.456960 7.355616 -0.000041 
42.091602 -14.038914 92.802483 -0.127904 -3.501591 87.840187 -1.473417 0.592947 0.224863 1.055703 1.176660 0.463276 2.700885 1.182045 0.449136 -1.014058 12.880151 -7.107348 2.181172 -16.006589 -7.426092 -14.522253 -37.198962 -16.431316 -95.129181 -180.771857 -68.788133 -0.000067 0.000002 0.000009 51.025837 -2.209798 -1.660996 -0.000050 0.000028 -2.999988 -5.000171 -7.998943 0.000148 -16.282678 73.352564 19.467366 99.958145 73.659704 -109.487707 0.000003 -0.000003 0.000005 20.865673 11.414775 -0.980665 0.000009 -0.000005 3.000010 -5.000171 7.998742 -0.000157 6.462324 -186.071483 -4.037361 -179.999991 0.000005 -1.146005 173.922038 -1.839614 -0.412862 0.000018 0.000002 0.108751 70.156855 7.140906 1.383725 27.570161 -7.404117 -1.200866 -11.719215 176.105650 0.268764 -0.000005 -0.000004 -0.935976 -17.246236 4.346012 1.212737 -0.000002 -0.000002 -0.231427 68.972186 -6.800045 -2.365955 25.456962 7.355616 -0.000041 
42.057899 -14.038515 92.795395 -0.107510 -3.453731 87.791215 -1.474470 0.594412 0.225970 1.053724 1.179231 0.465790 2.698917 1.184644 0.451616 -1.052197 12.882299 -7.086594 2.167244 -16.002028 -7.412431 -14.514663 -37.193962 -16.420977 -95.063966 -180.664610 -68.867588 -0.000067 0.000005 0.000008 51.160979 -2.246802 -1.643313 -0.000049 0.000025 -2.999991 -5.000165 -7.998940 0.000152 -16.278586 73.384673 19.463459 99.841868 73.622466 -109.324705 0.000001 -0.000003 0.000005 20.891206 11.438068 -0.987684 0.000007 -0.000004 3.000010 -5.000168 7.998742 -0.000158 6.402054 -186.047345 -4.031965 -179.999991 0.000005 -1.143997 173.949127 -1.835726 -0.411570 0.000018 0.000003 0.109334 70.165516 7.141590 1.381087 27.537933 -7.402704 -1.183175 -11.765684 176.122944 0.283628 -0.000007 -0.000004 -0.934788 -17.212736 4.346357 1.211295 -0.000002 -0.000002 -0.231368 68.967664 -6.800091 -2.365842 25.456960 7.355615 -0.000040 
42.017601 -14.026117 92.802490 -0.088240 -3.407364 87.739961 -1.475169 0.595739 0.226933 1.052404 1.181601 0.467945 2.697599 1.187043 0.453741 -1.091041 12.881546 -7.062826 2.155221 -15.994555 -7.395361 -14.505780 -37.194669 -16.409031 -95.000787 -180.561938 -68.953287 -0.000067 0.000003 0.000009 51.290435 -2.283459 -1.625970 -0.000047 0.000023 -2.999992 -5.000165 -7.998942 0.000153 -16.278940 73.412492 19.464316 99.745644 73.585391 -109.184317 0.000003 -0.000004 0.000004 20.912726 11.459675 -0.994052 0.000006 -0.000005 3.000009 -5.000169 7.998743 -0.000158 6.342159 -186.024205 -4.026727 -179.999991 0.000005 -1.143000 173.974194 -1.831831 -0.410347 0.000019 0.000002 0.109844 70.173459 7.142060 1.379060 27.506814 -7.401364 -1.166028 -11.811475 176.138271 0.296681 -0.000006 -0.000004 -0.933616 -17.181375 4.347817 1.209986 -0.000002 -0.000002 -0.231302 68.963375 -6.800184 -2.365722 25.456962 7.355615 -0.000041 
41.978100 -14.025516 92.798393 -0.070769 -3.362767 87.685948 -1.475412 0.596901 0.227674 1.051964 1.183751 0.469579 2.697161 1.189201 0.455349 -1.131553 12.877176 -7.035467 2.145722 -15.983056 -7.374274 -14.495345 -37.203012 -16.395369 -94.940203 -180.464922 -69.046027 -0.000067 0.000005 0.000011 51.414116 -2.319860 -1.609020 -0.000051 0.000025 -2.999988 -5.000171 -7.998945 0.000147 -16.284855 73.434581 19.471140 99.674078 73.548467 -109.071052 0.000004 -0.000004 0.000004 20.930346 11.479690 -0.999811 0.000006 -0.000005 3.000011 -5.000173 7.998742 -0.000158 6.283008 -186.001009 -4.021687 -179.999991 0.000006 -1.142003 173.997321 -1.827928 -0.409190 0.000018 0.000002 0.110253 70.180426 7.142179 1.378132 27.476816 -7.400087 -1.149582 -11.856401 176.151631 0.307513 -0.000006 -0.000004 -0.932463 -17.152642 4.350534 1.208830 -0.000003 -0.000002 -0.231229 68.959700 -6.800207 -2.365552 25.456960 7.355616 -0.000041 
41.939800 -14.015715 92.796600 -0.055835 -3.320256 87.628868 -1.475069 0.597877 0.228121 1.052645 1.185640 0.470534 2.697843 1.191108 0.456280 -1.174676 12.868187 -7.003990 2.139373 -15.966827 -7.348598 -14.483430 -37.220662 -16.380023 -94.882563 -180.374614 -69.148897 -0.000065 0.000005 0.000005 51.531926 -2.356109 -1.592477 -0.000047 0.000024 -2.999989 -5.000171 -7.998944 0.000150 -16.297583 73.449498 19.485273 99.632031 73.511482 -108.989663 0.000003 -0.000003 0.000005 20.944241 11.497818 -1.004904 0.000006 -0.000005 3.000011 -5.000168 7.998743 -0.000158 6.225028 -185.979808 -4.017263 -179.999991 0.000005 -1.139995 174.018617 -1.825011 -0.408198 0.000018 0.000003 0.110531 70.186013 7.142010 1.378045 27.448328 -7.398885 -1.133878 -11.900262 176.161056 0.316128 -0.000006 -0.000004 -0.931332 -17.126964 4.354672 1.207844 -0.000002 -0.000002 -0.231143 68.956675 -6.800308 -2.365458 25.456962 7.355616 -0.000041 
